<svg xmlns="http://www.w3.org/2000/svg" width="196.721" height="200" viewBox="0 0 196.721 200">
  <g id="register" transform="translate(159.361 -624)">
    <path id="Path_1" data-name="Path 1" d="M127.869,22.951H114.754a9.837,9.837,0,0,0-9.836-9.836H95.082V9.836A9.837,9.837,0,0,0,85.246,0H59.016A9.837,9.837,0,0,0,49.18,9.836v3.279H39.344a9.837,9.837,0,0,0-9.836,9.836H16.393A16.413,16.413,0,0,0,0,39.344v49.18a3.279,3.279,0,0,0,6.557,0V39.344a9.837,9.837,0,0,1,9.836-9.836H29.508v6.557H16.393a3.279,3.279,0,0,0-3.279,3.279V183.607a3.279,3.279,0,0,0,3.279,3.279H127.869a3.279,3.279,0,0,0,3.279-3.279V39.344a3.279,3.279,0,0,0-3.279-3.279H114.754V29.508h13.115a9.837,9.837,0,0,1,9.836,9.836V183.607a9.837,9.837,0,0,1-9.836,9.836H16.393a9.837,9.837,0,0,1-9.836-9.836V144.262a3.279,3.279,0,1,0-6.557,0v39.344A16.413,16.413,0,0,0,16.393,200H127.869a16.413,16.413,0,0,0,16.393-16.393V39.344A16.413,16.413,0,0,0,127.869,22.951ZM55.738,9.836a3.279,3.279,0,0,1,3.279-3.279h26.23a3.279,3.279,0,0,1,3.279,3.279v3.279H55.738ZM124.59,42.623v137.7H19.672V42.623h9.836a9.837,9.837,0,0,0,9.836,9.836H78.689a3.279,3.279,0,0,0,0-6.557H39.344a3.279,3.279,0,0,1-3.279-3.279V22.951a3.279,3.279,0,0,1,3.279-3.279h65.574a3.279,3.279,0,0,1,3.279,3.279V42.623a3.279,3.279,0,0,1-3.279,3.279,3.279,3.279,0,0,0,0,6.557,9.837,9.837,0,0,0,9.836-9.836Zm0,0" transform="translate(-159.361 624)" fill="#eb1700"/>
    <path id="Path_2" data-name="Path 2" d="M101.639,32.787a3.279,3.279,0,0,0-3.279-3.279H45.9a3.279,3.279,0,1,0,0,6.557H98.361A3.279,3.279,0,0,0,101.639,32.787Zm0,0" transform="translate(-159.361 624)" fill="#eb1700"/>
    <path id="Path_3" data-name="Path 3" d="M102.268,129.955a3.278,3.278,0,0,0-4.636,0L81.407,146.183l-6.958-6.954a3.279,3.279,0,1,0-4.636,4.636l9.276,9.273a3.28,3.28,0,0,0,4.636,0l18.543-18.548a3.276,3.276,0,0,0,0-4.635Zm0,0" transform="translate(-159.361 624)" fill="#eb1700"/>
    <path id="Path_4" data-name="Path 4" d="M85.246,108.2a32.787,32.787,0,0,0,0,65.574,3.279,3.279,0,1,0,0-6.557,26.229,26.229,0,1,1,18.548-7.681,3.278,3.278,0,0,0,4.635,4.635A32.786,32.786,0,0,0,85.246,108.2Zm0,0" transform="translate(-159.361 624)" fill="#eb1700"/>
    <path id="Path_5" data-name="Path 5" d="M59.016,72.131H91.8a3.279,3.279,0,0,0,0-6.557H59.016a3.279,3.279,0,1,0,0,6.557Zm0,0" transform="translate(-159.361 624)" fill="#eb1700"/>
    <path id="Path_6" data-name="Path 6" d="M32.787,88.525H91.8a3.279,3.279,0,0,0,0-6.557H32.787a3.279,3.279,0,0,0,0,6.557Zm0,0" transform="translate(-159.361 624)" fill="#eb1700"/>
    <path id="Path_7" data-name="Path 7" d="M32.787,104.918H62.3a3.279,3.279,0,1,0,0-6.557H32.787a3.279,3.279,0,1,0,0,6.557Zm0,0" transform="translate(-159.361 624)" fill="#eb1700"/>
    <path id="Path_8" data-name="Path 8" d="M45.9,114.754H32.787a3.279,3.279,0,1,0,0,6.557H45.9a3.279,3.279,0,1,0,0-6.557Zm0,0" transform="translate(-159.361 624)" fill="#eb1700"/>
    <path id="Path_9" data-name="Path 9" d="M39.344,131.148H32.787a3.279,3.279,0,1,0,0,6.557h6.557a3.279,3.279,0,1,0,0-6.557Zm0,0" transform="translate(-159.361 624)" fill="#eb1700"/>
    <path id="Path_10" data-name="Path 10" d="M104.918,88.525h6.557a3.279,3.279,0,1,0,0-6.557h-6.557a3.279,3.279,0,0,0,0,6.557Zm0,0" transform="translate(-159.361 624)" fill="#eb1700"/>
    <path id="Path_11" data-name="Path 11" d="M114.754,68.852a3.279,3.279,0,1,1-3.279-3.279A3.279,3.279,0,0,1,114.754,68.852Zm0,0" transform="translate(-159.361 624)" fill="#eb1700"/>
    <path id="Path_12" data-name="Path 12" d="M193.443,52.459h-9.836V42.623a3.279,3.279,0,0,0-3.279-3.279H167.213V29.508a3.279,3.279,0,0,1,6.557,0,3.279,3.279,0,1,0,6.557,0,9.836,9.836,0,0,0-19.672,0v9.836a3.279,3.279,0,0,0-3.279,3.279V137.7c0,.085.043.16.05.247s-.027.144-.018.219l3.247,22.714v9.607a9.836,9.836,0,1,0,19.672,0v-9.607l3.247-22.714c0-.075-.024-.147-.018-.219a2.4,2.4,0,0,0,.05-.247V72.131h6.557v29.508a3.279,3.279,0,0,0,6.557,0v-45.9A3.279,3.279,0,0,0,193.443,52.459ZM177.049,45.9v6.557H163.934V45.9Zm-2.843,111.475h-7.428l-2.342-16.393h12.113ZM163.934,59.016h13.115v6.557H163.934Zm9.836,111.475a3.279,3.279,0,1,1-6.557,0v-6.557h6.557Zm3.279-36.066H163.934v-62.3h13.115Zm6.557-75.41h6.557v6.557h-6.557Zm0,0" transform="translate(-159.361 624)" fill="#eb1700"/>
  </g>
</svg>
