<svg xmlns="http://www.w3.org/2000/svg" width="190.604" height="200" viewBox="0 0 190.604 200">
  <g id="track" transform="translate(-395.698 -329)">
    <path id="Path_1" data-name="Path 1" d="M142.819,63.33A46.971,46.971,0,1,0,95.847,110.3,46.971,46.971,0,0,0,142.819,63.33Zm-87.276,0a40.3,40.3,0,1,1,40.3,40.3A40.3,40.3,0,0,1,55.543,63.33Zm0,0" transform="translate(395.505 329)"/>
    <path id="Path_2" data-name="Path 2" d="M98.308,90.427l21.81-9.693a6.065,6.065,0,0,0,3.594-5.541v-25.5a3.254,3.254,0,0,0-.233-1.16,2.8,2.8,0,0,0-.143-.307,3.13,3.13,0,0,0-.479-.714,2.679,2.679,0,0,0-.2-.232,3.292,3.292,0,0,0-.916-.618l-.053-.023L98.315,36.233a6.04,6.04,0,0,0-4.927,0L70.024,46.62l-.064.043a3.321,3.321,0,0,0-.916.63c-.078.07-.134.154-.2.23a3.361,3.361,0,0,0-.479.714,2.482,2.482,0,0,0-.143.31,3.275,3.275,0,0,0-.233,1.154V75.2a6.067,6.067,0,0,0,3.6,5.541L93.4,90.435a6.024,6.024,0,0,0,4.926,0Zm.873-7.666V62.767l17.864-7.944V74.8ZM95.847,42.433l16.335,7.26-16.335,7.26-16.333-7.26Zm-21.2,12.39,17.867,7.944v19.98L74.637,74.8Zm0,0" transform="translate(395.505 329)"/>
    <path id="Path_3" data-name="Path 3" d="M16.986,138.712,1.019,182.046A13.333,13.333,0,0,0,13.512,200H177.45a13.333,13.333,0,0,0,12.306-18.5l-15.241-36.134-3.032-7.195A13.289,13.289,0,0,0,159.215,130H126.231l7.215-14.437a11.226,11.226,0,0,1,2.89-3.525,63.335,63.335,0,1,0-81.232-.212,12.883,12.883,0,0,1,3.29,4.022L65.463,130H29.479a13.334,13.334,0,0,0-12.493,8.713ZM23.246,141a6.646,6.646,0,0,1,6.233-4.334h5.844l-7.668,21.14A3.333,3.333,0,0,1,24.512,160H16.246ZM88.08,163.332a20.649,20.649,0,0,0,15.534,0H174.85L177.664,170H63.551a10,10,0,0,0-9.171,6l-7.533,17.334H38.273l10.468-24a10,10,0,0,1,9.169-6Zm94.936,27a6.575,6.575,0,0,1-5.567,3H54.114L60.5,178.666a3.332,3.332,0,0,1,3.056-2h116.92l3.13,7.427a6.544,6.544,0,0,1-.594,6.241ZM165.35,140.749l1.083,2.57h-9.117a3.376,3.376,0,0,1-3.169-2.28l-1.451-4.373h6.52a6.633,6.633,0,0,1,6.128,4.1Zm-19.674-4.083,2.153,6.51A10.044,10.044,0,0,0,157.316,150h11.92l2.811,6.667H112.422a21.358,21.358,0,0,0,2.2-3.427l8.28-16.573ZM59.393,106.721a56.668,56.668,0,1,1,72.668.194,17.669,17.669,0,0,0-4.59,5.667l-18.824,37.667a14.285,14.285,0,0,1-6.909,6.667,1.624,1.624,0,0,0-.148.067,14.4,14.4,0,0,1-11.507,0,1.428,1.428,0,0,0-.146-.067,14.292,14.292,0,0,1-6.909-6.667l-18.668-37.4a19.459,19.459,0,0,0-4.967-6.13ZM77.06,153.241a21.341,21.341,0,0,0,2.214,3.424H57.91a16.668,16.668,0,0,0-15.281,10L31,193.333H13.512a6.667,6.667,0,0,1-6.236-8.98l6.517-17.687h10.72a10.029,10.029,0,0,0,9.4-6.587l8.5-23.414H68.794Zm0,0" transform="translate(395.505 329)"/>
  </g>
</svg>
