<svg xmlns="http://www.w3.org/2000/svg" width="200" height="200" viewBox="0 0 200 200">
  <g id="request" transform="translate(-391 -329)">
    <path id="Path_1" data-name="Path 1" d="M182.5,135.329l-24.433-5.639v-6.352a25.974,25.974,0,0,0,6.187-7.209h3.49A16.148,16.148,0,0,0,183.871,100a15.973,15.973,0,0,0-3.226-9.578v-13a38.71,38.71,0,0,0-77.419,0v13A15.979,15.979,0,0,0,100,100a16.148,16.148,0,0,0,16.129,16.129h3.49a25.922,25.922,0,0,0,6.187,7.209v6.352l-24.433,5.639a22.47,22.47,0,0,0-4.6,1.641V119.355a9.69,9.69,0,0,0-9.677-9.677H9.678A9.69,9.69,0,0,0,0,119.355v58.064A9.69,9.69,0,0,0,9.678,187.1H35.484v6.452H29.032V200H200V157.332a22.476,22.476,0,0,0-17.5-22Zm-54.2.41,7.864,5.9-7.951,4.771L126.5,136.152Zm10.152,25.551h6.971l2.687,32.258H135.764Zm7.609-6.452h-8.254l-1.852-5.555,5.981-3.587,5.977,3.587Zm1.649-13.2,7.864-5.9,2.274.526L155.8,146.491Zm20.032-31.959h-.849a25.655,25.655,0,0,0,.849-6.452v-12.9a9.677,9.677,0,0,1,0,19.355ZM141.936,45.161a32.294,32.294,0,0,1,32.258,32.258v7.819a15.966,15.966,0,0,0-6.452-1.367V77.419H161.29v1.8a18.911,18.911,0,0,1-7.787,4.057c.126-.123.265-.228.391-.351l-4.561-4.561a18.874,18.874,0,0,1-8.732,4.913c.126-.123.265-.228.391-.351l-4.561-4.561a18.93,18.93,0,0,1-13.294,5.507h-.554V77.419h-6.452v6.452a15.966,15.966,0,0,0-6.452,1.367V77.419a32.294,32.294,0,0,1,32.258-32.258Zm-25.806,64.516a9.677,9.677,0,0,1,0-19.355v12.9a25.655,25.655,0,0,0,.849,6.452Zm6.452-6.452v-12.9h.554a25.211,25.211,0,0,0,9.123-1.745v1.745h3.78a25.211,25.211,0,0,0,9.123-1.745v1.745h3.78A25.388,25.388,0,0,0,161.29,87.06v16.165a19.26,19.26,0,0,1-1.129,6.452H141.936v6.452h14.387a19.328,19.328,0,0,1-33.742-12.9Zm19.355,25.806a25.629,25.629,0,0,0,9.677-1.9v3.512l-9.677,7.258-9.677-7.258v-3.512A25.629,25.629,0,0,0,141.936,129.032Zm-39.113,12.583,17.381-4.009,3.2,19.208,6.888-4.131,1.925,5.774-2.925,35.09H112.9V158.064h-6.452v35.484H90.323V186.5a9.664,9.664,0,0,0,6.452-9.084V144.465a16.127,16.127,0,0,1,6.048-2.849ZM61.29,187.1H83.871v6.452H61.29ZM9.678,180.645a3.228,3.228,0,0,1-3.226-3.226V119.355a3.228,3.228,0,0,1,3.226-3.226H87.1a3.228,3.228,0,0,1,3.226,3.226v58.064a3.228,3.228,0,0,1-3.226,3.226H61.29v-6.452a12.9,12.9,0,1,0-25.806,0v6.452Zm32.258-6.452a6.452,6.452,0,1,1,12.9,0v19.355h-12.9Zm151.613,19.355H177.419V158.064h-6.452v35.484H154.581l-2.922-35.09,1.922-5.774,6.749,4.051,3.8-19.019,16.917,3.9a16.054,16.054,0,0,1,12.5,15.713Zm0,0" transform="translate(391 329)"/>
    <path id="Path_2" data-name="Path 2" d="M80.645,65.938a9.664,9.664,0,0,0-6.615-9.18L61.29,52.512V48.3a16.064,16.064,0,0,0,6.452-12.82V29.032a16.129,16.129,0,1,0-32.258,0v6.452A16.055,16.055,0,0,0,41.935,48.3v4.209L29.2,56.759a9.667,9.667,0,0,0-6.615,9.18V83.871H80.645ZM41.935,29.032a9.677,9.677,0,1,1,19.355,0v6.452a9.677,9.677,0,0,1-19.355,0ZM74.194,77.419H29.032V65.938a3.219,3.219,0,0,1,2.207-3.06l17.148-5.713V51.287a16.121,16.121,0,0,0,6.452,0v5.878l17.148,5.713a3.223,3.223,0,0,1,2.207,3.06Zm0,0" transform="translate(391 329)"/>
    <path id="Path_3" data-name="Path 3" d="M51.613,103.226A51.613,51.613,0,1,0,0,51.613,51.674,51.674,0,0,0,51.613,103.226Zm0-96.774A45.161,45.161,0,1,1,6.452,51.613,45.21,45.21,0,0,1,51.613,6.452Zm0,0" transform="translate(391 329)"/>
    <path id="Path_4" data-name="Path 4" d="M119.355,19.355h6.452v6.452h-6.452Zm0,0" transform="translate(391 329)"/>
    <path id="Path_5" data-name="Path 5" d="M138.71,19.355h6.452v6.452H138.71Zm0,0" transform="translate(391 329)"/>
    <path id="Path_6" data-name="Path 6" d="M158.064,19.355h6.452v6.452h-6.452Zm0,0" transform="translate(391 329)"/>
  </g>
</svg>
